<svg viewBox="0 0 800 540" xmlns="http://www.w3.org/2000/svg" fill="none">
  <!-- Central Control Plane -->
  <rect x="150" y="20" width="500" height="140" rx="12" fill="#1a2332" stroke="#046d39" stroke-width="2"/>
  <text x="400" y="52" text-anchor="middle" fill="#ffffff" font-size="16" font-weight="700" font-family="Inter, sans-serif">Central Control Plane</text>
  <rect x="180" y="68" width="130" height="36" rx="6" fill="rgba(4,109,57,0.15)" stroke="#046d39" stroke-width="1"/>
  <text x="245" y="91" text-anchor="middle" fill="#3ddc84" font-size="12" font-family="JetBrains Mono, monospace">gRPC :9090</text>
  <rect x="335" y="68" width="130" height="36" rx="6" fill="rgba(4,109,57,0.15)" stroke="#046d39" stroke-width="1"/>
  <text x="400" y="91" text-anchor="middle" fill="#3ddc84" font-size="12" font-family="JetBrains Mono, monospace">REST :8080</text>
  <rect x="490" y="68" width="130" height="36" rx="6" fill="rgba(4,109,57,0.15)" stroke="#046d39" stroke-width="1"/>
  <text x="555" y="91" text-anchor="middle" fill="#3ddc84" font-size="12" font-family="JetBrains Mono, monospace">Dashboard</text>
  <rect x="250" y="116" width="300" height="30" rx="6" fill="rgba(59,130,246,0.12)" stroke="rgba(59,130,246,0.4)" stroke-width="1"/>
  <text x="400" y="136" text-anchor="middle" fill="#93c5fd" font-size="12" font-family="JetBrains Mono, monospace">PostgreSQL (metadata)</text>

  <!-- Connection lines -->
  <line x1="260" y1="160" x2="130" y2="250" stroke="#046d39" stroke-width="2" stroke-dasharray="6,4"/>
  <line x1="400" y1="160" x2="400" y2="250" stroke="#046d39" stroke-width="2" stroke-dasharray="6,4"/>
  <line x1="540" y1="160" x2="670" y2="250" stroke="#046d39" stroke-width="2" stroke-dasharray="6,4"/>
  <rect x="290" y="195" width="220" height="22" rx="4" fill="#0f1923"/>
  <text x="400" y="211" text-anchor="middle" fill="#8899aa" font-size="11" font-family="Inter, sans-serif">gRPC bidirectional streams</text>

  <!-- ==================== Satellite A (primary=pod-0) ==================== -->
  <rect x="30" y="250" width="200" height="250" rx="12" fill="#1a2332" stroke="rgba(255,255,255,0.12)" stroke-width="1.5"/>
  <text x="130" y="278" text-anchor="middle" fill="#ffffff" font-size="14" font-weight="600" font-family="Inter, sans-serif">Satellite A</text>
  <rect x="52" y="290" width="156" height="28" rx="5" fill="rgba(4,109,57,0.1)" stroke="rgba(4,109,57,0.3)" stroke-width="1"/>
  <text x="130" y="309" text-anchor="middle" fill="#8899aa" font-size="11" font-family="Inter, sans-serif">Operator + Health Monitor</text>

  <!-- Pod 0 (PRIMARY) -->
  <rect x="50" y="326" width="48" height="76" rx="8" fill="rgba(255,255,255,0.04)" stroke="rgba(255,255,255,0.1)" stroke-width="1"/>
  <rect x="54" y="330" width="40" height="28" rx="5" fill="rgba(59,130,246,0.12)" stroke="rgba(59,130,246,0.4)" stroke-width="1"/>
  <text x="74" y="349" text-anchor="middle" fill="#93c5fd" font-size="10" font-weight="500" font-family="JetBrains Mono, monospace">PG</text>
  <rect x="54" y="364" width="40" height="28" rx="5" fill="rgba(251,146,60,0.12)" stroke="rgba(251,146,60,0.5)" stroke-width="1"/>
  <text x="74" y="383" text-anchor="middle" fill="#fb923c" font-size="10" font-weight="500" font-family="JetBrains Mono, monospace">FS</text>
  <text x="74" y="418" text-anchor="middle" fill="#666" font-size="9" font-family="Inter, sans-serif">pod-0</text>
  <rect x="52" y="426" width="44" height="16" rx="3" fill="rgba(4,109,57,0.3)"/>
  <text x="74" y="437" text-anchor="middle" fill="#3ddc84" font-size="8" font-weight="600" font-family="Inter, sans-serif">PRIMARY</text>

  <!-- Pod 1 (REPLICA) -->
  <rect x="106" y="326" width="48" height="76" rx="8" fill="rgba(255,255,255,0.04)" stroke="rgba(255,255,255,0.1)" stroke-width="1"/>
  <rect x="110" y="330" width="40" height="28" rx="5" fill="rgba(59,130,246,0.12)" stroke="rgba(59,130,246,0.4)" stroke-width="1"/>
  <text x="130" y="349" text-anchor="middle" fill="#93c5fd" font-size="10" font-weight="500" font-family="JetBrains Mono, monospace">PG</text>
  <rect x="110" y="364" width="40" height="28" rx="5" fill="rgba(251,146,60,0.12)" stroke="rgba(251,146,60,0.5)" stroke-width="1"/>
  <text x="130" y="383" text-anchor="middle" fill="#fb923c" font-size="10" font-weight="500" font-family="JetBrains Mono, monospace">FS</text>
  <text x="130" y="418" text-anchor="middle" fill="#666" font-size="9" font-family="Inter, sans-serif">pod-1</text>
  <rect x="108" y="426" width="44" height="16" rx="3" fill="rgba(59,130,246,0.15)"/>
  <text x="130" y="437" text-anchor="middle" fill="#93c5fd" font-size="8" font-weight="600" font-family="Inter, sans-serif">REPLICA</text>

  <!-- Pod 2 (REPLICA) -->
  <rect x="162" y="326" width="48" height="76" rx="8" fill="rgba(255,255,255,0.04)" stroke="rgba(255,255,255,0.1)" stroke-width="1"/>
  <rect x="166" y="330" width="40" height="28" rx="5" fill="rgba(59,130,246,0.12)" stroke="rgba(59,130,246,0.4)" stroke-width="1"/>
  <text x="186" y="349" text-anchor="middle" fill="#93c5fd" font-size="10" font-weight="500" font-family="JetBrains Mono, monospace">PG</text>
  <rect x="166" y="364" width="40" height="28" rx="5" fill="rgba(251,146,60,0.12)" stroke="rgba(251,146,60,0.5)" stroke-width="1"/>
  <text x="186" y="383" text-anchor="middle" fill="#fb923c" font-size="10" font-weight="500" font-family="JetBrains Mono, monospace">FS</text>
  <text x="186" y="418" text-anchor="middle" fill="#666" font-size="9" font-family="Inter, sans-serif">pod-2</text>
  <rect x="164" y="426" width="44" height="16" rx="3" fill="rgba(59,130,246,0.15)"/>
  <text x="186" y="437" text-anchor="middle" fill="#93c5fd" font-size="8" font-weight="600" font-family="Inter, sans-serif">REPLICA</text>

  <rect x="60" y="454" width="140" height="24" rx="4" fill="rgba(59,130,246,0.08)"/>
  <text x="130" y="470" text-anchor="middle" fill="#6688aa" font-size="11" font-family="Inter, sans-serif">K8s Edge Cluster</text>

  <!-- ==================== Satellite B (primary=pod-1) ==================== -->
  <rect x="300" y="250" width="200" height="250" rx="12" fill="#1a2332" stroke="rgba(255,255,255,0.12)" stroke-width="1.5"/>
  <text x="400" y="278" text-anchor="middle" fill="#ffffff" font-size="14" font-weight="600" font-family="Inter, sans-serif">Satellite B</text>
  <rect x="322" y="290" width="156" height="28" rx="5" fill="rgba(4,109,57,0.1)" stroke="rgba(4,109,57,0.3)" stroke-width="1"/>
  <text x="400" y="309" text-anchor="middle" fill="#8899aa" font-size="11" font-family="Inter, sans-serif">Operator + Health Monitor</text>

  <!-- Pod 0 (REPLICA) -->
  <rect x="320" y="326" width="48" height="76" rx="8" fill="rgba(255,255,255,0.04)" stroke="rgba(255,255,255,0.1)" stroke-width="1"/>
  <rect x="324" y="330" width="40" height="28" rx="5" fill="rgba(59,130,246,0.12)" stroke="rgba(59,130,246,0.4)" stroke-width="1"/>
  <text x="344" y="349" text-anchor="middle" fill="#93c5fd" font-size="10" font-weight="500" font-family="JetBrains Mono, monospace">PG</text>
  <rect x="324" y="364" width="40" height="28" rx="5" fill="rgba(251,146,60,0.12)" stroke="rgba(251,146,60,0.5)" stroke-width="1"/>
  <text x="344" y="383" text-anchor="middle" fill="#fb923c" font-size="10" font-weight="500" font-family="JetBrains Mono, monospace">FS</text>
  <text x="344" y="418" text-anchor="middle" fill="#666" font-size="9" font-family="Inter, sans-serif">pod-0</text>
  <rect x="322" y="426" width="44" height="16" rx="3" fill="rgba(59,130,246,0.15)"/>
  <text x="344" y="437" text-anchor="middle" fill="#93c5fd" font-size="8" font-weight="600" font-family="Inter, sans-serif">REPLICA</text>

  <!-- Pod 1 (PRIMARY) -->
  <rect x="376" y="326" width="48" height="76" rx="8" fill="rgba(255,255,255,0.04)" stroke="rgba(255,255,255,0.1)" stroke-width="1"/>
  <rect x="380" y="330" width="40" height="28" rx="5" fill="rgba(59,130,246,0.12)" stroke="rgba(59,130,246,0.4)" stroke-width="1"/>
  <text x="400" y="349" text-anchor="middle" fill="#93c5fd" font-size="10" font-weight="500" font-family="JetBrains Mono, monospace">PG</text>
  <rect x="380" y="364" width="40" height="28" rx="5" fill="rgba(251,146,60,0.12)" stroke="rgba(251,146,60,0.5)" stroke-width="1"/>
  <text x="400" y="383" text-anchor="middle" fill="#fb923c" font-size="10" font-weight="500" font-family="JetBrains Mono, monospace">FS</text>
  <text x="400" y="418" text-anchor="middle" fill="#666" font-size="9" font-family="Inter, sans-serif">pod-1</text>
  <rect x="378" y="426" width="44" height="16" rx="3" fill="rgba(4,109,57,0.3)"/>
  <text x="400" y="437" text-anchor="middle" fill="#3ddc84" font-size="8" font-weight="600" font-family="Inter, sans-serif">PRIMARY</text>

  <!-- Pod 2 (REPLICA) -->
  <rect x="432" y="326" width="48" height="76" rx="8" fill="rgba(255,255,255,0.04)" stroke="rgba(255,255,255,0.1)" stroke-width="1"/>
  <rect x="436" y="330" width="40" height="28" rx="5" fill="rgba(59,130,246,0.12)" stroke="rgba(59,130,246,0.4)" stroke-width="1"/>
  <text x="456" y="349" text-anchor="middle" fill="#93c5fd" font-size="10" font-weight="500" font-family="JetBrains Mono, monospace">PG</text>
  <rect x="436" y="364" width="40" height="28" rx="5" fill="rgba(251,146,60,0.12)" stroke="rgba(251,146,60,0.5)" stroke-width="1"/>
  <text x="456" y="383" text-anchor="middle" fill="#fb923c" font-size="10" font-weight="500" font-family="JetBrains Mono, monospace">FS</text>
  <text x="456" y="418" text-anchor="middle" fill="#666" font-size="9" font-family="Inter, sans-serif">pod-2</text>
  <rect x="434" y="426" width="44" height="16" rx="3" fill="rgba(59,130,246,0.15)"/>
  <text x="456" y="437" text-anchor="middle" fill="#93c5fd" font-size="8" font-weight="600" font-family="Inter, sans-serif">REPLICA</text>

  <rect x="330" y="454" width="140" height="24" rx="4" fill="rgba(59,130,246,0.08)"/>
  <text x="400" y="470" text-anchor="middle" fill="#6688aa" font-size="11" font-family="Inter, sans-serif">K8s Edge Cluster</text>

  <!-- ==================== Satellite N (primary=pod-2) ==================== -->
  <rect x="570" y="250" width="200" height="250" rx="12" fill="#1a2332" stroke="rgba(255,255,255,0.12)" stroke-width="1.5"/>
  <text x="670" y="278" text-anchor="middle" fill="#ffffff" font-size="14" font-weight="600" font-family="Inter, sans-serif">Satellite N</text>
  <rect x="592" y="290" width="156" height="28" rx="5" fill="rgba(4,109,57,0.1)" stroke="rgba(4,109,57,0.3)" stroke-width="1"/>
  <text x="670" y="309" text-anchor="middle" fill="#8899aa" font-size="11" font-family="Inter, sans-serif">Operator + Health Monitor</text>

  <!-- Pod 0 (REPLICA) -->
  <rect x="590" y="326" width="48" height="76" rx="8" fill="rgba(255,255,255,0.04)" stroke="rgba(255,255,255,0.1)" stroke-width="1"/>
  <rect x="594" y="330" width="40" height="28" rx="5" fill="rgba(59,130,246,0.12)" stroke="rgba(59,130,246,0.4)" stroke-width="1"/>
  <text x="614" y="349" text-anchor="middle" fill="#93c5fd" font-size="10" font-weight="500" font-family="JetBrains Mono, monospace">PG</text>
  <rect x="594" y="364" width="40" height="28" rx="5" fill="rgba(251,146,60,0.12)" stroke="rgba(251,146,60,0.5)" stroke-width="1"/>
  <text x="614" y="383" text-anchor="middle" fill="#fb923c" font-size="10" font-weight="500" font-family="JetBrains Mono, monospace">FS</text>
  <text x="614" y="418" text-anchor="middle" fill="#666" font-size="9" font-family="Inter, sans-serif">pod-0</text>
  <rect x="592" y="426" width="44" height="16" rx="3" fill="rgba(59,130,246,0.15)"/>
  <text x="614" y="437" text-anchor="middle" fill="#93c5fd" font-size="8" font-weight="600" font-family="Inter, sans-serif">REPLICA</text>

  <!-- Pod 1 (REPLICA) -->
  <rect x="646" y="326" width="48" height="76" rx="8" fill="rgba(255,255,255,0.04)" stroke="rgba(255,255,255,0.1)" stroke-width="1"/>
  <rect x="650" y="330" width="40" height="28" rx="5" fill="rgba(59,130,246,0.12)" stroke="rgba(59,130,246,0.4)" stroke-width="1"/>
  <text x="670" y="349" text-anchor="middle" fill="#93c5fd" font-size="10" font-weight="500" font-family="JetBrains Mono, monospace">PG</text>
  <rect x="650" y="364" width="40" height="28" rx="5" fill="rgba(251,146,60,0.12)" stroke="rgba(251,146,60,0.5)" stroke-width="1"/>
  <text x="670" y="383" text-anchor="middle" fill="#fb923c" font-size="10" font-weight="500" font-family="JetBrains Mono, monospace">FS</text>
  <text x="670" y="418" text-anchor="middle" fill="#666" font-size="9" font-family="Inter, sans-serif">pod-1</text>
  <rect x="648" y="426" width="44" height="16" rx="3" fill="rgba(59,130,246,0.15)"/>
  <text x="670" y="437" text-anchor="middle" fill="#93c5fd" font-size="8" font-weight="600" font-family="Inter, sans-serif">REPLICA</text>

  <!-- Pod 2 (PRIMARY) -->
  <rect x="702" y="326" width="48" height="76" rx="8" fill="rgba(255,255,255,0.04)" stroke="rgba(255,255,255,0.1)" stroke-width="1"/>
  <rect x="706" y="330" width="40" height="28" rx="5" fill="rgba(59,130,246,0.12)" stroke="rgba(59,130,246,0.4)" stroke-width="1"/>
  <text x="726" y="349" text-anchor="middle" fill="#93c5fd" font-size="10" font-weight="500" font-family="JetBrains Mono, monospace">PG</text>
  <rect x="706" y="364" width="40" height="28" rx="5" fill="rgba(251,146,60,0.12)" stroke="rgba(251,146,60,0.5)" stroke-width="1"/>
  <text x="726" y="383" text-anchor="middle" fill="#fb923c" font-size="10" font-weight="500" font-family="JetBrains Mono, monospace">FS</text>
  <text x="726" y="418" text-anchor="middle" fill="#666" font-size="9" font-family="Inter, sans-serif">pod-2</text>
  <rect x="704" y="426" width="44" height="16" rx="3" fill="rgba(4,109,57,0.3)"/>
  <text x="726" y="437" text-anchor="middle" fill="#3ddc84" font-size="8" font-weight="600" font-family="Inter, sans-serif">PRIMARY</text>

  <rect x="600" y="454" width="140" height="24" rx="4" fill="rgba(59,130,246,0.08)"/>
  <text x="670" y="470" text-anchor="middle" fill="#6688aa" font-size="11" font-family="Inter, sans-serif">K8s Edge Cluster</text>

  <!-- Ellipsis between B and N -->
  <text x="535" y="380" text-anchor="middle" fill="#556677" font-size="24" font-family="Inter, sans-serif">...</text>

  <!-- Legend -->
  <rect x="140" y="510" width="12" height="12" rx="2" fill="rgba(59,130,246,0.12)" stroke="rgba(59,130,246,0.4)" stroke-width="1"/>
  <text x="158" y="521" fill="#8899aa" font-size="11" font-family="Inter, sans-serif">PG = PostgreSQL container</text>
  <rect x="340" y="510" width="12" height="12" rx="2" fill="rgba(251,146,60,0.12)" stroke="rgba(251,146,60,0.5)" stroke-width="1"/>
  <text x="358" y="521" fill="#8899aa" font-size="11" font-family="Inter, sans-serif">FS = Sentinel Sidecar</text>
  <rect x="520" y="510" width="12" height="12" rx="2" fill="rgba(4,109,57,0.3)"/>
  <text x="538" y="521" fill="#8899aa" font-size="11" font-family="Inter, sans-serif">PRIMARY</text>
  <rect x="610" y="510" width="12" height="12" rx="2" fill="rgba(59,130,246,0.15)"/>
  <text x="628" y="521" fill="#8899aa" font-size="11" font-family="Inter, sans-serif">REPLICA</text>
</svg>
